# Blender v2.79 (sub 0) OBJ File: 'icosahedron.blend'
# www.blender.org
mtllib icosahedron.mtl
o Icosphere
v -0.247049 -0.938665 -0.240572
v 0.743001 -0.669186 -0.010936
v 0.009912 -0.669420 0.742803
v -0.889570 -0.324664 0.321333
v -0.712368 -0.111364 -0.692898
v 0.296611 -0.324291 -0.898241
v 0.712368 0.111364 0.692898
v -0.296611 0.324291 0.898241
v -0.743001 0.669186 0.010936
v -0.009912 0.669420 -0.742803
v 0.889570 0.324664 -0.321333
v 0.247049 0.938665 0.240572
v 0.261362 -1.176590 0.253835
v 0.409489 -0.998274 -0.594037
v -0.582133 -0.998587 0.425508
v -0.955311 -0.710258 -0.316270
v -0.342450 -0.710066 -0.946384
v 0.996745 -0.345551 -0.635763
v 0.757063 -0.634074 0.736128
v -0.607738 -0.346059 1.013895
v -1.211552 0.120466 -0.186326
v -0.219928 0.120780 -1.205870
v 1.211552 -0.120466 0.186326
v 0.219928 -0.120780 1.205870
v -0.996745 0.345551 0.635763
v -0.757063 0.634074 -0.736128
v 0.607739 0.346059 -1.013896
v 0.955311 0.710258 0.316270
v 0.342450 0.710066 0.946384
v -0.409489 0.998274 0.594037
v -0.261362 1.176590 -0.253835
v 0.582133 0.998587 -0.425508
vn 0.1458 -0.8949 0.4217
vn 0.4259 -0.8949 0.1337
vn -0.3125 -0.7982 0.5150
vn -0.8588 -0.5099 -0.0491
vn 0.1281 -0.9009 -0.4146
vn 0.0476 -0.9978 0.0460
vn -0.4106 -0.9011 0.1393
vn -0.6134 -0.7445 -0.2637
vn -0.2804 -0.7444 -0.6061
vn 0.6548 -0.3116 -0.6886
vn 0.6952 -0.6001 0.3957
vn -0.3264 -0.4437 0.8346
vn -0.9980 -0.0586 0.0215
vn -0.3916 0.0231 -0.9198
vn 0.9421 -0.3211 0.0971
vn 0.1233 -0.3214 0.9389
vn -0.8813 0.0637 0.4682
vn -0.6834 0.3019 -0.6646
vn 0.4435 0.0641 -0.8940
vn 0.3358 -0.6662 -0.6659
vn 0.6834 -0.3019 0.6646
vn -0.6561 -0.6665 0.3539
vn -0.4582 -0.4283 -0.7789
vn 0.8813 -0.0637 -0.4682
vn -0.4435 -0.0641 0.8940
vn -0.7911 -0.4284 -0.4365
vn -0.9421 0.3211 -0.0971
vn -0.0727 -0.5096 -0.8573
vn -0.1233 0.3214 -0.9389
vn 0.5063 -0.7980 -0.3269
vn 0.3264 0.4437 -0.8346
vn 0.9304 -0.0229 0.3660
vn 0.9980 0.0586 -0.0215
vn 0.0062 0.0583 0.9983
vn 0.3916 -0.0231 0.9198
vn -0.8254 0.4434 0.3496
vn -0.6548 0.3116 0.6886
vn -0.4151 0.6002 -0.6837
vn -0.6952 0.6001 -0.3957
vn 0.6700 0.3120 -0.6736
vn 0.6134 0.7445 0.2637
vn 0.4151 -0.6002 0.6837
vn 0.2804 0.7444 0.6061
vn -0.6700 -0.3120 0.6736
vn -0.1281 0.9009 0.4146
vn -0.9304 0.0229 -0.3660
vn -0.0476 0.9978 -0.0460
vn -0.0062 -0.0583 -0.9983
vn 0.4106 0.9011 -0.1393
vn 0.8254 -0.4434 -0.3496
vn 0.3125 0.7982 -0.5150
vn 0.0727 0.5096 0.8573
vn 0.8588 0.5099 0.0491
vn -0.5063 0.7980 0.3269
vn 0.4582 0.4283 0.7789
vn -0.1458 0.8949 -0.4217
vn -0.3358 0.6662 0.6659
vn 0.6561 0.6665 -0.3539
vn -0.4259 0.8949 -0.1337
vn 0.7911 0.4284 0.4365
usemtl Icomaterial
s off
f 2//1 1//1 14//1
f 1//2 3//2 15//2
f 1//3 4//3 16//3
f 1//4 5//4 17//4
f 2//5 6//5 18//5
f 3//6 2//6 19//6
f 4//7 3//7 20//7
f 5//8 4//8 21//8
f 6//9 5//9 22//9
f 2//10 11//10 23//10
f 3//11 7//11 24//11
f 4//12 8//12 25//12
f 5//13 9//13 26//13
f 6//14 10//14 27//14
f 7//15 11//15 28//15
f 8//16 7//16 29//16
f 9//17 8//17 30//17
f 10//18 9//18 31//18
f 11//19 10//19 32//19
f 1//20 2//20 13//20
f 2//21 3//21 13//21
f 3//22 1//22 13//22
f 1//23 6//23 14//23
f 6//24 2//24 14//24
f 3//25 4//25 15//25
f 4//26 1//26 15//26
f 4//27 5//27 16//27
f 5//28 1//28 16//28
f 5//29 6//29 17//29
f 6//30 1//30 17//30
f 6//31 11//31 18//31
f 11//32 2//32 18//32
f 2//33 7//33 19//33
f 7//34 3//34 19//34
f 3//35 8//35 20//35
f 8//36 4//36 20//36
f 4//37 9//37 21//37
f 9//38 5//38 21//38
f 5//39 10//39 22//39
f 10//40 6//40 22//40
f 11//41 7//41 23//41
f 7//42 2//42 23//42
f 7//43 8//43 24//43
f 8//44 3//44 24//44
f 8//45 9//45 25//45
f 9//46 4//46 25//46
f 9//47 10//47 26//47
f 10//48 5//48 26//48
f 10//49 11//49 27//49
f 11//50 6//50 27//50
f 11//51 12//51 28//51
f 12//52 7//52 28//52
f 7//53 12//53 29//53
f 12//54 8//54 29//54
f 8//55 12//55 30//55
f 12//56 9//56 30//56
f 9//57 12//57 31//57
f 12//58 10//58 31//58
f 10//59 12//59 32//59
f 12//60 11//60 32//60
