<?xml version="1.0" encoding="UTF-8" standalone="no"?>
<!-- Created with Inkscape (http://www.inkscape.org/) -->

<svg
   xmlns:dc="http://purl.org/dc/elements/1.1/"
   xmlns:cc="http://creativecommons.org/ns#"
   xmlns:rdf="http://www.w3.org/1999/02/22-rdf-syntax-ns#"
   xmlns:svg="http://www.w3.org/2000/svg"
   xmlns="http://www.w3.org/2000/svg"
   xmlns:sodipodi="http://sodipodi.sourceforge.net/DTD/sodipodi-0.dtd"
   xmlns:inkscape="http://www.inkscape.org/namespaces/inkscape"
   width="512"
   height="512"
   id="svg2"
   version="1.1"
   inkscape:version="0.91 r13725"
   sodipodi:docname="logoeffect_fg.svg"
   inkscape:export-filename="C:\Users\halcy\Desktop\3DSDev\nordlicht18\asset_source\logo_fg.png"
   inkscape:export-xdpi="90"
   inkscape:export-ydpi="90">
  <defs
     id="defs4">
    <linearGradient
       id="linearGradient4172">
      <stop
         style="stop-color:#9f70e0;stop-opacity:0"
         offset="0"
         id="stop4174" />
      <stop
         id="stop4176"
         offset="0.25"
         style="stop-color:#839ae5;stop-opacity:0.75" />
      <stop
         id="stop4178"
         offset="0.5"
         style="stop-color:#ffffff;stop-opacity:1" />
      <stop
         style="stop-color:#839ae5;stop-opacity:0.50980395"
         offset="0.75"
         id="stop4180" />
      <stop
         style="stop-color:#9f70e0;stop-opacity:0"
         offset="1"
         id="stop4182" />
    </linearGradient>
    <linearGradient
       id="linearGradient4146">
      <stop
         id="stop4148"
         offset="0"
         style="stop-color:#9f70e0;stop-opacity:0" />
      <stop
         style="stop-color:#839ae5;stop-opacity:0.75"
         offset="0.25"
         id="stop4150" />
      <stop
         style="stop-color:#68ffea;stop-opacity:1"
         offset="0.5"
         id="stop4152" />
      <stop
         id="stop4154"
         offset="0.75"
         style="stop-color:#839ae5;stop-opacity:0.50980395" />
      <stop
         id="stop4156"
         offset="1"
         style="stop-color:#9f70e0;stop-opacity:0" />
    </linearGradient>
    <linearGradient
       id="linearGradient5131">
      <stop
         style="stop-color:#9f70e0;stop-opacity:0"
         offset="0"
         id="stop5133" />
      <stop
         id="stop4184"
         offset="0.25"
         style="stop-color:#839ae5;stop-opacity:0.50980395" />
      <stop
         id="stop4076"
         offset="0.5"
         style="stop-color:#68ffea;stop-opacity:0.58431375" />
      <stop
         style="stop-color:#839ae5;stop-opacity:0.50980395"
         offset="0.75"
         id="stop4186" />
      <stop
         style="stop-color:#9f70e0;stop-opacity:0"
         offset="1"
         id="stop5135" />
    </linearGradient>
  </defs>
  <sodipodi:namedview
     id="base"
     pagecolor="#c2c2c2"
     bordercolor="#666666"
     borderopacity="1.0"
     inkscape:pageopacity="0"
     inkscape:pageshadow="2"
     inkscape:zoom="0.98994949"
     inkscape:cx="297.6264"
     inkscape:cy="402.42399"
     inkscape:document-units="px"
     inkscape:current-layer="g4213"
     showgrid="false"
     fit-margin-top="0"
     fit-margin-left="0"
     fit-margin-right="0"
     fit-margin-bottom="0"
     inkscape:window-width="1680"
     inkscape:window-height="997"
     inkscape:window-x="-8"
     inkscape:window-y="-8"
     inkscape:window-maximized="1" />
  <metadata
     id="metadata7">
    <rdf:RDF>
      <cc:Work
         rdf:about="">
        <dc:format>image/svg+xml</dc:format>
        <dc:type
           rdf:resource="http://purl.org/dc/dcmitype/StillImage" />
        <dc:title></dc:title>
      </cc:Work>
    </rdf:RDF>
  </metadata>
  <g
     inkscape:label="Layer 1"
     inkscape:groupmode="layer"
     id="layer1"
     transform="translate(-73.999992,-356.36215)">
    <g
       id="g4213"
       transform="matrix(1.1127672,0,0,1.1127672,-13.716732,-100.94923)">
      <g
         transform="matrix(0.11051765,0.05390306,-0.05390306,0.11051765,385.68497,529.39003)"
         id="g4160">
        <path
           style="color:#000000;display:inline;overflow:visible;visibility:visible;fill:#ffffff;fill-rule:evenodd;stroke:#000000;stroke-width:8;stroke-linecap:round;stroke-linejoin:round;stroke-miterlimit:4;stroke-dasharray:none;stroke-dashoffset:0;stroke-opacity:1;marker:none;marker-start:none;marker-mid:none;marker-end:none;enable-background:accumulate"
           d="m 241.49999,596.57644 -60.35714,90.71428 71.42857,-21.78571"
           id="path4205"
           inkscape:connector-curvature="0"
           sodipodi:nodetypes="ccc" />
        <path
           sodipodi:nodetypes="ccc"
           inkscape:connector-curvature="0"
           id="path4207"
           d="m 376.26934,596.57644 60.35714,90.71428 -71.42857,-21.78571"
           style="color:#000000;display:inline;overflow:visible;visibility:visible;fill:#ffffff;fill-rule:evenodd;stroke:#000000;stroke-width:8;stroke-linecap:round;stroke-linejoin:round;stroke-miterlimit:4;stroke-dasharray:none;stroke-dashoffset:0;stroke-opacity:1;marker:none;marker-start:none;marker-mid:none;marker-end:none;enable-background:accumulate" />
        <path
           id="path4192"
           style="color:#000000;display:inline;overflow:visible;visibility:visible;opacity:1;fill:#ffffff;fill-rule:evenodd;stroke:#000000;stroke-width:8;stroke-linecap:round;stroke-linejoin:round;stroke-miterlimit:4;stroke-dasharray:none;stroke-dashoffset:0;stroke-opacity:1;marker:none;marker-start:none;marker-mid:none;marker-end:none;enable-background:accumulate"
           d="m 306.97101,692.09053 c -12.65716,-0.50548 -37.88072,-3.03046 -37.88072,-3.03046 0,0 -6.07071,-5.57032 -8.08122,-9.09137 -7.36581,-12.89993 -11.0632,-27.79635 -13.63706,-42.42641 -3.91167,-22.23431 -3.9086,-45.14686 -2.52538,-67.68022 1.29564,-21.10656 4.41747,-42.26141 10.10153,-62.62945 4.34465,-15.56846 9.8199,-31.1201 18.18274,-44.95179 9.4788,-15.67742 35.54245,-41.92133 35.54245,-41.92133 0,0 26.06365,26.24391 35.54245,41.92133 8.36284,13.83169 13.83809,29.38333 18.18274,44.95179 5.68406,20.36804 8.80589,41.52289 10.10153,62.62945 1.38322,22.53336 1.38629,45.44591 -2.52538,67.68022 -2.57386,14.63006 -6.27125,29.52648 -13.63706,42.42641 -2.01051,3.52105 -8.08122,9.09137 -8.08122,9.09137 0,0 -25.22356,2.52498 -37.88072,3.03046 -1.13399,0.0453 -2.27069,0.0453 -3.40468,0 z"
           inkscape:connector-curvature="0"
           sodipodi:nodetypes="acaaaaacaaaaacaa" />
        <ellipse
           style="opacity:1;fill:#000000;fill-opacity:1;stroke:none;stroke-width:30;stroke-linecap:butt;stroke-linejoin:miter;stroke-miterlimit:4;stroke-dasharray:none;stroke-dashoffset:0;stroke-opacity:1"
           id="path4197"
           cx="309.71426"
           cy="503.41785"
           rx="20.714287"
           ry="20.341478" />
        <ellipse
           ry="20.341478"
           rx="20.714287"
           cy="567.16785"
           cx="309.71426"
           id="ellipse4199"
           style="opacity:1;fill:#000000;fill-opacity:1;stroke:none;stroke-width:30;stroke-linecap:butt;stroke-linejoin:miter;stroke-miterlimit:4;stroke-dasharray:none;stroke-dashoffset:0;stroke-opacity:1" />
        <ellipse
           style="opacity:1;fill:#000000;fill-opacity:1;stroke:none;stroke-width:30;stroke-linecap:butt;stroke-linejoin:miter;stroke-miterlimit:4;stroke-dasharray:none;stroke-dashoffset:0;stroke-opacity:1"
           id="ellipse4201"
           cx="309.71426"
           cy="630.91785"
           rx="20.714287"
           ry="20.341478" />
        <path
           style="color:#000000;display:inline;overflow:visible;visibility:visible;fill:#000000;fill-rule:evenodd;stroke:#000000;stroke-width:3;stroke-linecap:round;stroke-linejoin:round;stroke-miterlimit:4;stroke-dasharray:none;stroke-dashoffset:0;stroke-opacity:1;marker:none;marker-start:none;marker-mid:none;marker-end:none;enable-background:accumulate"
           d="m 270.42856,690.14786 c 0,0 -2.57582,13.62319 0,19.64286 1.42437,3.32875 4.23651,7.5214 7.85714,7.5 23.84605,-0.14097 41.66258,-0.77335 63.57143,-1.07143 3.45206,-0.047 5.90009,-4.27906 7.14286,-7.5 2.25895,-5.85462 -0.46175,-18.82024 -0.46175,-18.82024 0,0 -26.20359,2.89303 -39.35968,2.92739 -12.94745,0.0338 -38.75,-2.67858 -38.75,-2.67858 z"
           id="path4203"
           inkscape:connector-curvature="0"
           sodipodi:nodetypes="cassacac" />
        <path
           sodipodi:nodetypes="cccccccccccc"
           inkscape:connector-curvature="0"
           d="m 287.57142,717.64786 -28.57143,84.28572 27.85714,-37.85714 -12.14285,57.14285 18.57142,-39.28571 14.28572,80.71428 1.43272,0 14.28572,-80.71428 18.57142,39.28571 -12.14285,-57.14285 27.85714,37.85714 -28.57143,-84.28572"
           style="color:#000000;display:inline;overflow:visible;visibility:visible;fill:#ffffff;fill-rule:evenodd;stroke:#000000;stroke-width:6;stroke-linecap:round;stroke-linejoin:round;stroke-miterlimit:4;stroke-dasharray:none;stroke-dashoffset:0;stroke-opacity:1;marker:none;marker-start:none;marker-mid:none;marker-end:none;enable-background:accumulate"
           id="path4211" />
      </g>
      <g
         id="g4326"
         transform="matrix(0.12027514,0.02556527,-0.02556527,0.12027514,387.85768,468.94886)">
        <path
           sodipodi:nodetypes="ccc"
           inkscape:connector-curvature="0"
           id="path4328"
           d="m 241.49999,596.57644 -60.35714,90.71428 71.42857,-21.78571"
           style="color:#000000;display:inline;overflow:visible;visibility:visible;fill:#ffffff;fill-rule:evenodd;stroke:#000000;stroke-width:8;stroke-linecap:round;stroke-linejoin:round;stroke-miterlimit:4;stroke-dasharray:none;stroke-dashoffset:0;stroke-opacity:1;marker:none;marker-start:none;marker-mid:none;marker-end:none;enable-background:accumulate" />
        <path
           style="color:#000000;display:inline;overflow:visible;visibility:visible;fill:#ffffff;fill-rule:evenodd;stroke:#000000;stroke-width:8;stroke-linecap:round;stroke-linejoin:round;stroke-miterlimit:4;stroke-dasharray:none;stroke-dashoffset:0;stroke-opacity:1;marker:none;marker-start:none;marker-mid:none;marker-end:none;enable-background:accumulate"
           d="m 376.26934,596.57644 60.35714,90.71428 -71.42857,-21.78571"
           id="path4330"
           inkscape:connector-curvature="0"
           sodipodi:nodetypes="ccc" />
        <path
           sodipodi:nodetypes="acaaaaacaaaaacaa"
           inkscape:connector-curvature="0"
           d="m 306.97101,692.09053 c -12.65716,-0.50548 -37.88072,-3.03046 -37.88072,-3.03046 0,0 -6.07071,-5.57032 -8.08122,-9.09137 -7.36581,-12.89993 -11.0632,-27.79635 -13.63706,-42.42641 -3.91167,-22.23431 -3.9086,-45.14686 -2.52538,-67.68022 1.29564,-21.10656 4.41747,-42.26141 10.10153,-62.62945 4.34465,-15.56846 9.8199,-31.1201 18.18274,-44.95179 9.4788,-15.67742 35.54245,-41.92133 35.54245,-41.92133 0,0 26.06365,26.24391 35.54245,41.92133 8.36284,13.83169 13.83809,29.38333 18.18274,44.95179 5.68406,20.36804 8.80589,41.52289 10.10153,62.62945 1.38322,22.53336 1.38629,45.44591 -2.52538,67.68022 -2.57386,14.63006 -6.27125,29.52648 -13.63706,42.42641 -2.01051,3.52105 -8.08122,9.09137 -8.08122,9.09137 0,0 -25.22356,2.52498 -37.88072,3.03046 -1.13399,0.0453 -2.27069,0.0453 -3.40468,0 z"
           style="color:#000000;display:inline;overflow:visible;visibility:visible;opacity:1;fill:#ffffff;fill-rule:evenodd;stroke:#000000;stroke-width:8;stroke-linecap:round;stroke-linejoin:round;stroke-miterlimit:4;stroke-dasharray:none;stroke-dashoffset:0;stroke-opacity:1;marker:none;marker-start:none;marker-mid:none;marker-end:none;enable-background:accumulate"
           id="path4332" />
        <ellipse
           ry="20.341478"
           rx="20.714287"
           cy="503.41785"
           cx="309.71426"
           id="ellipse4334"
           style="opacity:1;fill:#000000;fill-opacity:1;stroke:none;stroke-width:30;stroke-linecap:butt;stroke-linejoin:miter;stroke-miterlimit:4;stroke-dasharray:none;stroke-dashoffset:0;stroke-opacity:1" />
        <ellipse
           style="opacity:1;fill:#000000;fill-opacity:1;stroke:none;stroke-width:30;stroke-linecap:butt;stroke-linejoin:miter;stroke-miterlimit:4;stroke-dasharray:none;stroke-dashoffset:0;stroke-opacity:1"
           id="ellipse4336"
           cx="309.71426"
           cy="567.16785"
           rx="20.714287"
           ry="20.341478" />
        <ellipse
           ry="20.341478"
           rx="20.714287"
           cy="630.91785"
           cx="309.71426"
           id="ellipse4338"
           style="opacity:1;fill:#000000;fill-opacity:1;stroke:none;stroke-width:30;stroke-linecap:butt;stroke-linejoin:miter;stroke-miterlimit:4;stroke-dasharray:none;stroke-dashoffset:0;stroke-opacity:1" />
        <path
           sodipodi:nodetypes="cassacac"
           inkscape:connector-curvature="0"
           id="path4340"
           d="m 270.42856,690.14786 c 0,0 -2.57582,13.62319 0,19.64286 1.42437,3.32875 4.23651,7.5214 7.85714,7.5 23.84605,-0.14097 41.66258,-0.77335 63.57143,-1.07143 3.45206,-0.047 5.90009,-4.27906 7.14286,-7.5 2.25895,-5.85462 -0.46175,-18.82024 -0.46175,-18.82024 0,0 -26.20359,2.89303 -39.35968,2.92739 -12.94745,0.0338 -38.75,-2.67858 -38.75,-2.67858 z"
           style="color:#000000;display:inline;overflow:visible;visibility:visible;fill:#000000;fill-rule:evenodd;stroke:#000000;stroke-width:3;stroke-linecap:round;stroke-linejoin:round;stroke-miterlimit:4;stroke-dasharray:none;stroke-dashoffset:0;stroke-opacity:1;marker:none;marker-start:none;marker-mid:none;marker-end:none;enable-background:accumulate" />
        <path
           id="path4342"
           style="color:#000000;display:inline;overflow:visible;visibility:visible;fill:#ffffff;fill-rule:evenodd;stroke:#000000;stroke-width:6;stroke-linecap:round;stroke-linejoin:round;stroke-miterlimit:4;stroke-dasharray:none;stroke-dashoffset:0;stroke-opacity:1;marker:none;marker-start:none;marker-mid:none;marker-end:none;enable-background:accumulate"
           d="m 287.57142,717.64786 -28.57143,84.28572 27.85714,-37.85714 -12.14285,57.14285 18.57142,-39.28571 14.28572,80.71428 1.43272,0 14.28572,-80.71428 18.57142,39.28571 -12.14285,-57.14285 27.85714,37.85714 -28.57143,-84.28572"
           inkscape:connector-curvature="0"
           sodipodi:nodetypes="cccccccccccc" />
      </g>
      <g
         transform="matrix(0.12027514,-0.02556527,0.02556527,0.12027514,355.05725,421.83607)"
         id="g4344">
        <path
           style="color:#000000;display:inline;overflow:visible;visibility:visible;fill:#ffffff;fill-rule:evenodd;stroke:#000000;stroke-width:8;stroke-linecap:round;stroke-linejoin:round;stroke-miterlimit:4;stroke-dasharray:none;stroke-dashoffset:0;stroke-opacity:1;marker:none;marker-start:none;marker-mid:none;marker-end:none;enable-background:accumulate"
           d="m 241.49999,596.57644 -60.35714,90.71428 71.42857,-21.78571"
           id="path4346"
           inkscape:connector-curvature="0"
           sodipodi:nodetypes="ccc" />
        <path
           sodipodi:nodetypes="ccc"
           inkscape:connector-curvature="0"
           id="path4348"
           d="m 376.26934,596.57644 60.35714,90.71428 -71.42857,-21.78571"
           style="color:#000000;display:inline;overflow:visible;visibility:visible;fill:#ffffff;fill-rule:evenodd;stroke:#000000;stroke-width:8;stroke-linecap:round;stroke-linejoin:round;stroke-miterlimit:4;stroke-dasharray:none;stroke-dashoffset:0;stroke-opacity:1;marker:none;marker-start:none;marker-mid:none;marker-end:none;enable-background:accumulate" />
        <path
           id="path4350"
           style="color:#000000;display:inline;overflow:visible;visibility:visible;opacity:1;fill:#ffffff;fill-rule:evenodd;stroke:#000000;stroke-width:8;stroke-linecap:round;stroke-linejoin:round;stroke-miterlimit:4;stroke-dasharray:none;stroke-dashoffset:0;stroke-opacity:1;marker:none;marker-start:none;marker-mid:none;marker-end:none;enable-background:accumulate"
           d="m 306.97101,692.09053 c -12.65716,-0.50548 -37.88072,-3.03046 -37.88072,-3.03046 0,0 -6.07071,-5.57032 -8.08122,-9.09137 -7.36581,-12.89993 -11.0632,-27.79635 -13.63706,-42.42641 -3.91167,-22.23431 -3.9086,-45.14686 -2.52538,-67.68022 1.29564,-21.10656 4.41747,-42.26141 10.10153,-62.62945 4.34465,-15.56846 9.8199,-31.1201 18.18274,-44.95179 9.4788,-15.67742 35.54245,-41.92133 35.54245,-41.92133 0,0 26.06365,26.24391 35.54245,41.92133 8.36284,13.83169 13.83809,29.38333 18.18274,44.95179 5.68406,20.36804 8.80589,41.52289 10.10153,62.62945 1.38322,22.53336 1.38629,45.44591 -2.52538,67.68022 -2.57386,14.63006 -6.27125,29.52648 -13.63706,42.42641 -2.01051,3.52105 -8.08122,9.09137 -8.08122,9.09137 0,0 -25.22356,2.52498 -37.88072,3.03046 -1.13399,0.0453 -2.27069,0.0453 -3.40468,0 z"
           inkscape:connector-curvature="0"
           sodipodi:nodetypes="acaaaaacaaaaacaa" />
        <ellipse
           style="opacity:1;fill:#000000;fill-opacity:1;stroke:none;stroke-width:30;stroke-linecap:butt;stroke-linejoin:miter;stroke-miterlimit:4;stroke-dasharray:none;stroke-dashoffset:0;stroke-opacity:1"
           id="ellipse4352"
           cx="309.71426"
           cy="503.41785"
           rx="20.714287"
           ry="20.341478" />
        <ellipse
           ry="20.341478"
           rx="20.714287"
           cy="567.16785"
           cx="309.71426"
           id="ellipse4354"
           style="opacity:1;fill:#000000;fill-opacity:1;stroke:none;stroke-width:30;stroke-linecap:butt;stroke-linejoin:miter;stroke-miterlimit:4;stroke-dasharray:none;stroke-dashoffset:0;stroke-opacity:1" />
        <ellipse
           style="opacity:1;fill:#000000;fill-opacity:1;stroke:none;stroke-width:30;stroke-linecap:butt;stroke-linejoin:miter;stroke-miterlimit:4;stroke-dasharray:none;stroke-dashoffset:0;stroke-opacity:1"
           id="ellipse4356"
           cx="309.71426"
           cy="630.91785"
           rx="20.714287"
           ry="20.341478" />
        <path
           style="color:#000000;display:inline;overflow:visible;visibility:visible;fill:#000000;fill-rule:evenodd;stroke:#000000;stroke-width:3;stroke-linecap:round;stroke-linejoin:round;stroke-miterlimit:4;stroke-dasharray:none;stroke-dashoffset:0;stroke-opacity:1;marker:none;marker-start:none;marker-mid:none;marker-end:none;enable-background:accumulate"
           d="m 270.42856,690.14786 c 0,0 -2.57582,13.62319 0,19.64286 1.42437,3.32875 4.23651,7.5214 7.85714,7.5 23.84605,-0.14097 41.66258,-0.77335 63.57143,-1.07143 3.45206,-0.047 5.90009,-4.27906 7.14286,-7.5 2.25895,-5.85462 -0.46175,-18.82024 -0.46175,-18.82024 0,0 -26.20359,2.89303 -39.35968,2.92739 -12.94745,0.0338 -38.75,-2.67858 -38.75,-2.67858 z"
           id="path4358"
           inkscape:connector-curvature="0"
           sodipodi:nodetypes="cassacac" />
        <path
           sodipodi:nodetypes="cccccccccccc"
           inkscape:connector-curvature="0"
           d="m 287.57142,717.64786 -28.57143,84.28572 27.85714,-37.85714 -12.14285,57.14285 18.57142,-39.28571 14.28572,80.71428 1.43272,0 14.28572,-80.71428 18.57142,39.28571 -12.14285,-57.14285 27.85714,37.85714 -28.57143,-84.28572"
           style="color:#000000;display:inline;overflow:visible;visibility:visible;fill:#ffffff;fill-rule:evenodd;stroke:#000000;stroke-width:6;stroke-linecap:round;stroke-linejoin:round;stroke-miterlimit:4;stroke-dasharray:none;stroke-dashoffset:0;stroke-opacity:1;marker:none;marker-start:none;marker-mid:none;marker-end:none;enable-background:accumulate"
           id="path4360" />
      </g>
      <g
         id="g4362"
         transform="matrix(0.11051765,-0.05390306,0.05390306,0.11051765,316.52679,373.97059)">
        <path
           sodipodi:nodetypes="ccc"
           inkscape:connector-curvature="0"
           id="path4364"
           d="m 241.49999,596.57644 -60.35714,90.71428 71.42857,-21.78571"
           style="color:#000000;display:inline;overflow:visible;visibility:visible;fill:#ffffff;fill-rule:evenodd;stroke:#000000;stroke-width:8;stroke-linecap:round;stroke-linejoin:round;stroke-miterlimit:4;stroke-dasharray:none;stroke-dashoffset:0;stroke-opacity:1;marker:none;marker-start:none;marker-mid:none;marker-end:none;enable-background:accumulate" />
        <path
           style="color:#000000;display:inline;overflow:visible;visibility:visible;fill:#ffffff;fill-rule:evenodd;stroke:#000000;stroke-width:8;stroke-linecap:round;stroke-linejoin:round;stroke-miterlimit:4;stroke-dasharray:none;stroke-dashoffset:0;stroke-opacity:1;marker:none;marker-start:none;marker-mid:none;marker-end:none;enable-background:accumulate"
           d="m 376.26934,596.57644 60.35714,90.71428 -71.42857,-21.78571"
           id="path4366"
           inkscape:connector-curvature="0"
           sodipodi:nodetypes="ccc" />
        <path
           sodipodi:nodetypes="acaaaaacaaaaacaa"
           inkscape:connector-curvature="0"
           d="m 306.97101,692.09053 c -12.65716,-0.50548 -37.88072,-3.03046 -37.88072,-3.03046 0,0 -6.07071,-5.57032 -8.08122,-9.09137 -7.36581,-12.89993 -11.0632,-27.79635 -13.63706,-42.42641 -3.91167,-22.23431 -3.9086,-45.14686 -2.52538,-67.68022 1.29564,-21.10656 4.41747,-42.26141 10.10153,-62.62945 4.34465,-15.56846 9.8199,-31.1201 18.18274,-44.95179 9.4788,-15.67742 35.54245,-41.92133 35.54245,-41.92133 0,0 26.06365,26.24391 35.54245,41.92133 8.36284,13.83169 13.83809,29.38333 18.18274,44.95179 5.68406,20.36804 8.80589,41.52289 10.10153,62.62945 1.38322,22.53336 1.38629,45.44591 -2.52538,67.68022 -2.57386,14.63006 -6.27125,29.52648 -13.63706,42.42641 -2.01051,3.52105 -8.08122,9.09137 -8.08122,9.09137 0,0 -25.22356,2.52498 -37.88072,3.03046 -1.13399,0.0453 -2.27069,0.0453 -3.40468,0 z"
           style="color:#000000;display:inline;overflow:visible;visibility:visible;opacity:1;fill:#ffffff;fill-rule:evenodd;stroke:#000000;stroke-width:8;stroke-linecap:round;stroke-linejoin:round;stroke-miterlimit:4;stroke-dasharray:none;stroke-dashoffset:0;stroke-opacity:1;marker:none;marker-start:none;marker-mid:none;marker-end:none;enable-background:accumulate"
           id="path4368" />
        <ellipse
           ry="20.341478"
           rx="20.714287"
           cy="503.41785"
           cx="309.71426"
           id="ellipse4370"
           style="opacity:1;fill:#000000;fill-opacity:1;stroke:none;stroke-width:30;stroke-linecap:butt;stroke-linejoin:miter;stroke-miterlimit:4;stroke-dasharray:none;stroke-dashoffset:0;stroke-opacity:1" />
        <ellipse
           style="opacity:1;fill:#000000;fill-opacity:1;stroke:none;stroke-width:30;stroke-linecap:butt;stroke-linejoin:miter;stroke-miterlimit:4;stroke-dasharray:none;stroke-dashoffset:0;stroke-opacity:1"
           id="ellipse4372"
           cx="309.71426"
           cy="567.16785"
           rx="20.714287"
           ry="20.341478" />
        <ellipse
           ry="20.341478"
           rx="20.714287"
           cy="630.91785"
           cx="309.71426"
           id="ellipse4374"
           style="opacity:1;fill:#000000;fill-opacity:1;stroke:none;stroke-width:30;stroke-linecap:butt;stroke-linejoin:miter;stroke-miterlimit:4;stroke-dasharray:none;stroke-dashoffset:0;stroke-opacity:1" />
        <path
           sodipodi:nodetypes="cassacac"
           inkscape:connector-curvature="0"
           id="path4376"
           d="m 270.42856,690.14786 c 0,0 -2.57582,13.62319 0,19.64286 1.42437,3.32875 4.23651,7.5214 7.85714,7.5 23.84605,-0.14097 41.66258,-0.77335 63.57143,-1.07143 3.45206,-0.047 5.90009,-4.27906 7.14286,-7.5 2.25895,-5.85462 -0.46175,-18.82024 -0.46175,-18.82024 0,0 -26.20359,2.89303 -39.35968,2.92739 -12.94745,0.0338 -38.75,-2.67858 -38.75,-2.67858 z"
           style="color:#000000;display:inline;overflow:visible;visibility:visible;fill:#000000;fill-rule:evenodd;stroke:#000000;stroke-width:3;stroke-linecap:round;stroke-linejoin:round;stroke-miterlimit:4;stroke-dasharray:none;stroke-dashoffset:0;stroke-opacity:1;marker:none;marker-start:none;marker-mid:none;marker-end:none;enable-background:accumulate" />
        <path
           id="path4378"
           style="color:#000000;display:inline;overflow:visible;visibility:visible;fill:#ffffff;fill-rule:evenodd;stroke:#000000;stroke-width:6;stroke-linecap:round;stroke-linejoin:round;stroke-miterlimit:4;stroke-dasharray:none;stroke-dashoffset:0;stroke-opacity:1;marker:none;marker-start:none;marker-mid:none;marker-end:none;enable-background:accumulate"
           d="m 287.57142,717.64786 -28.57143,84.28572 27.85714,-37.85714 -12.14285,57.14285 18.57142,-39.28571 14.28572,80.71428 1.43272,0 14.28572,-80.71428 18.57142,39.28571 -12.14285,-57.14285 27.85714,37.85714 -28.57143,-84.28572"
           inkscape:connector-curvature="0"
           sodipodi:nodetypes="cccccccccccc" />
      </g>
    </g>
  </g>
</svg>
